{"title":"Pirates of the Caribbean: On Stranger Tides(2011)MPEG-4[DaScubaD","uid":13887200,"size":1363109046,"categoryP":"video","categoryS":"movies","magnet":"?xt=urn:btih:04a1c42aac6d9e65df3b551cd1d65bd86748c8cf&amp;dn=Pirates+of+the+Caribbean%3A+On+Stranger+Tides%282011%29MPEG-4%5BDaScubaD&amp;tr=udp%3A%2F%2Ftracker.leechers-paradise.org%3A6969&amp;tr=udp%3A%2F%2Fzer0day.ch%3A1337&amp;tr=udp%3A%2F%2Fopen.demonii.com%3A1337&amp;tr=udp%3A%2F%2Ftracker.coppersurfer.tk%3A6969&amp;tr=udp%3A%2F%2Fexodus.desync.com%3A6969","seeders":0,"leechers":0,"uploader":"dascuba","files":1,"time":1458181729,"description":"Pirates of the Caribbean: On Stranger Tides (2011)\r\nPG-13 | 2h 16min | Action, Adventure, Fantasy | 20 May 2011 (USA)\r\nJack Sparrow and Barbossa embark on a quest to find the elusive fountain of youth, only to discover that Blackbeard and his daughter are after it too.\r\nDirector: Rob Marshall\r\nWriters: Ted Elliott (screenplay), Terry Rossio (screenplay) | 7 more credits »\r\nStars: Johnny Depp, Penélope Cruz, Ian McShane \r\n\r\nGeneral\r\nComplete name                            : On Stranger TidesPirates_Of_The_Carribean_4_USA_D_Title13.mp4\r\nFormat                                   : MPEG-4\r\nFormat profile                           : Base Media\r\nCodec ID                                 : isom\r\nFile size                                : 1.27 GiB\r\nDuration                                 : 2h 16mn\r\nOverall bit rate mode                    : Variable\r\nOverall bit rate                         : 1 334 Kbps\r\nMovie name                               : Pirates_Of_The_Carribean_4_USA_D\r\nGenre                                    : Adventure\r\nWriting application                      : Lavf54.6.100\r\n\r\nVideo\r\nID                                       : 1\r\nFormat                                   : AVC\r\nFormat/Info                              : Advanced Video Codec\r\nFormat profile                           :   \r\nFormat settings, CABAC                   : No\r\nFormat settings, ReFrames                : 6 frames\r\nCodec ID                                 : avc1\r\nCodec ID/Info                            : Advanced Video Coding\r\nDuration                                 : 2h 16mn\r\nBit rate                                 : 1 199 Kbps\r\nWidth                                    : 720 pixels\r\nHeight                                   : 404 pixels\r\nDisplay aspect ratio                     : 16:9\r\nFrame rate mode                          : Constant\r\nFrame rate                               : 29.970 fps\r\nColor space                              : YUV\r\nChroma subsampling                       : 4:2:0\r\nBit depth                                : 8 bits\r\nScan type                                : Progressive\r\nBits/(Pixel*Frame)                       : 0.138\r\nStream size                              : 1.14 GiB (90%)\r\n\r\nAudio\r\nID                                       : 2\r\nFormat                                   : AAC\r\nFormat/Info                              : Advanced Audio Codec\r\nFormat profile                           : LC\r\nCodec ID                                 : 40\r\nDuration                                 : 2h 16mn\r\nBit rate mode                            : Variable\r\nBit rate                                 : 128 Kbps\r\nMaximum bit rate                         : 147 Kbps\r\nChannel(s)                               : 2 channels\r\nChannel positions                        : Front: L R\r\nSampling rate                            : 44.1 KHz\r\nCompression mode                         : Lossy\r\nStream size                              : 125 MiB (10%)","torrent":{"xt":"urn:btih:04a1c42aac6d9e65df3b551cd1d65bd86748c8cf","amp;dn":"Pirates+of+the+Caribbean%3A+On+Stranger+Tides%282011%29MPEG-4%5BDaScubaD","amp;tr":["udp%3A%2F%2Ftracker.leechers-paradise.org%3A6969","udp%3A%2F%2Fzer0day.ch%3A1337","udp%3A%2F%2Fopen.demonii.com%3A1337","udp%3A%2F%2Ftracker.coppersurfer.tk%3A6969","udp%3A%2F%2Fexodus.desync.com%3A6969"],"infoHash":"04a1c42aac6d9e65df3b551cd1d65bd86748c8cf","infoHashBuffer":{"type":"Buffer","data":[4,161,196,42,172,109,158,101,223,59,85,28,209,214,91,216,103,72,200,207]},"announce":[],"urlList":[]}}